<svg xmlns="http://www.w3.org/2000/svg" viewBox="0 0 484 431" width="484" height="431"><defs></defs><g transform="matrix(1,0,0,1,-285.264409046,-278.238240843)">
<g>
	<g>
		<path d="M285.264459046256,383.63151388979236 C285.264459046256,383.63151388979236 712.4585257953289,383.6314638897923 712.4585257953289,383.6314638897923 C712.4585257953289,383.6314638897923 712.4585257953288,709.6480385140849 712.4585257953288,709.6480385140849 C712.4585257953288,709.6480385140849 285.2644590462559,709.6480385140848 285.2644590462559,709.6480385140848 C285.2644590462559,709.6480385140848 285.264459046256,383.63151388979236 285.264459046256,383.63151388979236 Z" fill="#fefefe" stroke="#000000" stroke-width="2"/>
	</g>
	<g>
		<path d="M285.26445904625587,383.6314638897922 C285.26445904625587,383.6314638897922 444.05699043653635,278.23824084314623 444.05699043653635,278.23824084314623 C444.05699043653635,278.23824084314623 770.0735150608288,278.2382408431462 770.0735150608288,278.2382408431462 C770.0735150608288,278.2382408431462 712.4585257953288,383.63146388979226 712.4585257953288,383.63146388979226" fill="#000000" stroke="#000000" stroke-width="2"/>
	</g>
	<g>
		<path d="M712.4585257953285,709.6480385140846 C712.4585257953285,709.6480385140846 770.0735150608286,601.4442781861948 770.0735150608286,601.4442781861948 C770.0735150608286,601.4442781861948 770.0735150608286,278.2382408431461 770.0735150608286,278.2382408431461" fill="#000000" stroke="#000000" stroke-width="2"/>
	</g>
	<g>
		<path d="" fill="#fefefe" stroke="#000000" stroke-width="2"/>
	</g>
	<g>
		<path d="M285.26440904625576,709.6480385140843 C285.2643590462557,709.6480885140842 396.27651096220137,383.63146388979214 396.27651096220137,383.63146388979214 C396.27651096220137,383.63146388979214 452.47858370224094,709.6480385140848 452.47858370224094,709.6480385140848 C452.47858370224094,709.6480385140848 527.6689870535422,383.6314638897922 527.6689870535422,383.6314638897922 C527.6689870535422,383.6314638897922 527.6689870535421,709.6480385140899 527.6689870535421,709.6480385140899" fill="#000000" stroke="#000000" stroke-width="2"/>
	</g>
	<g>
		<path d="M570.5289180925118,493.9431396786151 C570.5289180925118,493.9431396786151 668.8959729360485,493.94313967861524 668.8959729360485,493.94313967861524 C668.8959729360485,493.94313967861524 668.8959729360483,539.9999999999999 668.8959729360483,539.9999999999999 C668.8959729360483,539.9999999999999 570.5289180925117,539.9999999999998 570.5289180925117,539.9999999999998 C570.5289180925117,539.9999999999998 570.5289180925118,493.9431396786151 570.5289180925118,493.9431396786151 Z" transform="matrix(1,0,0,1,0.35131091,-18.110127419)" fill="#000000" stroke="#000000" stroke-width="2"/>
	</g>
	<g>
		<path d="M570.5289180925116,614.0914709517922 C570.5289180925116,614.0914709517922 668.8959729360483,614.0914209517921 668.8959729360483,614.0914209517921 C668.8959729360483,614.0914209517921 668.8959729360482,659.0592674516947 668.8959729360482,659.0592674516947 C668.8959729360482,659.0592674516947 570.5289180925115,659.0592674516946 570.5289180925115,659.0592674516946 C570.5289180925115,659.0592674516946 570.5289180925116,614.0914709517922 570.5289180925116,614.0914709517922 Z" transform="matrix(1,0,0,1,0.35131091,-35.131091016)" fill="#000000" stroke="#000000" stroke-width="2"/>
	</g>
</g></g></svg>